# xmcd
#
# Track frame offsets: 
#        150
#        2375
#        12103
#        21919
#        34409
#        47236
#        82511
#
# Disc length: 1775 seconds
#
# Revision: 0
# Processed by: cddbd v1.5.2PL0 Copyright (c) Steve Scherf et al.
# Submitted via: ExactAudioCopy v0.95b3
#
DISCID=3f06ed07
DTITLE=The Beatles  - Way Beyond Compare - Episode 01 The Quarry Men P
DTITLE=art 1 (6 July 1957-April 1960)  FLAC
DYEAR=1900
DGENRE=
TTITLE0=Puttin' On The Style
TTITLE1=That'll Be The Day
TTITLE2=That'll Be The Day
TTITLE3=In Spite Of All The Danger
TTITLE4=In Spite Of All The Danger
TTITLE5=Instrumental #1
TTITLE6=Instrumental #2
EXTD=
EXTT0=
EXTT1=
EXTT2=
EXTT3=
EXTT4=
EXTT5=
EXTT6=
PLAYORDER=
